# xmcd
#
# Track frame offsets:
#	150
#	19801
#	40867
#	67196
#	98338
#	122537
#	139051
#	158232
#	180461
#	198074
#	215762
#	247119
#	265268
#
# Disc length: 3817 seconds
#
# Revision: 1
# Processed by: cddbd v1.5.2PL0 Copyright (c) Steve Scherf et al.
# Submitted via: audiograbber 1.82.02
#
DISCID=b40ee70d
DTITLE=Saxual - dreams
DYEAR=2007
DGENRE=Instrumental
TTITLE0=Senora
TTITLE1=Smooth night
TTITLE2=Stay another day
TTITLE3=Close to you
TTITLE4=Forever
TTITLE5=Point blank
TTITLE6=Too hot
TTITLE7=Secrets
TTITLE8=Grenadilla
TTITLE9=Friendly vibes
TTITLE10=Amber glow
TTITLE11=Imagine
TTITLE12=Calm seas
EXTD=
EXTT0=
EXTT1=
EXTT2=
EXTT3=
EXTT4=
EXTT5=
EXTT6=
EXTT7=
EXTT8=
EXTT9=
EXTT10=
EXTT11=
EXTT12=
PLAYORDER=
